<?xml version="1.0" encoding="iso-8859-1"?>
<!-- Generator: Adobe Illustrator 19.0.0, SVG Export Plug-In . SVG Version: 6.00 Build 0)  -->
<svg version="1.1" id="Capa_1" xmlns="http://www.w3.org/2000/svg" xmlns:xlink="http://www.w3.org/1999/xlink" x="0px" y="0px"
	 viewBox="0 0 470 470" style="enable-background:new 0 0 470 470;" xml:space="preserve">
<path d="M440,135.755V7.5c0-4.143-3.358-7.5-7.5-7.5h-60c-4.142,0-7.5,3.357-7.5,7.5s3.358,7.5,7.5,7.5H425v120h-15V37.5
	c0-4.143-3.358-7.5-7.5-7.5s-7.5,3.357-7.5,7.5v105c0,4.143,3.358,7.5,7.5,7.5h29.923c0.026,0,0.051,0.004,0.077,0.004
	c0.017,0,0.034-0.002,0.052-0.002C444.935,150.029,455,160.111,455,172.5v50c0,12.406-10.093,22.5-22.5,22.5h-30
	c-4.142,0-7.5,3.357-7.5,7.5V275h-15V37.5c0-4.143-3.358-7.5-7.5-7.5s-7.5,3.357-7.5,7.5v245c0,4.143,3.358,7.5,7.5,7.5h29.981
	C414.914,290.007,425,300.098,425,312.5v50c0,12.402-10.086,22.493-22.487,22.5c-0.032,0-30.013,0-30.013,0
	c-4.142,0-7.5,3.357-7.5,7.5v40c0,4.143,3.358,7.5,7.5,7.5s7.5-3.357,7.5-7.5V400h15v32.5c0,4.143,3.358,7.5,7.5,7.5
	s7.5-3.357,7.5-7.5v-33.255c5.539-1.129,10.637-3.483,15-6.766V455h-75V7.5c0-4.143-3.358-7.5-7.5-7.5h-295
	C43.358,0,40,3.357,40,7.5v25H22.5C10.093,32.5,0,42.594,0,55s10.093,22.5,22.5,22.5H40v75H22.5C10.093,152.5,0,162.594,0,175
	s10.093,22.5,22.5,22.5H40v75H22.5C10.093,272.5,0,282.594,0,295s10.093,22.5,22.5,22.5H40v75H22.5C10.093,392.5,0,402.594,0,415
	s10.093,22.5,22.5,22.5H40v25c0,4.143,3.358,7.5,7.5,7.5h385c4.142,0,7.5-3.357,7.5-7.5V259.245c17.096-3.484,30-18.635,30-36.745
	v-50C470,154.39,457.096,139.239,440,135.755z M15,55c0-4.136,3.364-7.5,7.5-7.5h50c4.136,0,7.5,3.364,7.5,7.5s-3.364,7.5-7.5,7.5
	h-50C18.364,62.5,15,59.136,15,55z M15,175c0-4.136,3.364-7.5,7.5-7.5h50c4.136,0,7.5,3.364,7.5,7.5s-3.364,7.5-7.5,7.5h-50
	C18.364,182.5,15,179.136,15,175z M15,295c0-4.136,3.364-7.5,7.5-7.5h50c4.136,0,7.5,3.364,7.5,7.5s-3.364,7.5-7.5,7.5h-50
	C18.364,302.5,15,299.136,15,295z M15,415c0-4.136,3.364-7.5,7.5-7.5h50c4.136,0,7.5,3.364,7.5,7.5s-3.364,7.5-7.5,7.5h-50
	C18.364,422.5,15,419.136,15,415z M55,437.5h17.5c12.407,0,22.5-10.094,22.5-22.5s-10.093-22.5-22.5-22.5H55v-75h17.5
	c12.407,0,22.5-10.094,22.5-22.5s-10.093-22.5-22.5-22.5H55v-75h17.5c12.407,0,22.5-10.094,22.5-22.5s-10.093-22.5-22.5-22.5H55v-75
	h17.5C84.907,77.5,95,67.406,95,55S84.907,32.5,72.5,32.5H55V15h280v440H55V437.5z M410,275.755V260h15v22.521
	C420.637,279.238,415.539,276.884,410,275.755z"/>
<g>
</g>
<g>
</g>
<g>
</g>
<g>
</g>
<g>
</g>
<g>
</g>
<g>
</g>
<g>
</g>
<g>
</g>
<g>
</g>
<g>
</g>
<g>
</g>
<g>
</g>
<g>
</g>
<g>
</g>
</svg>
