<?xml version="1.0" encoding="iso-8859-1"?>
<!-- Generator: Adobe Illustrator 19.0.0, SVG Export Plug-In . SVG Version: 6.00 Build 0)  -->
<svg version="1.1" id="Capa_1" xmlns="http://www.w3.org/2000/svg" xmlns:xlink="http://www.w3.org/1999/xlink" x="0px" y="0px"
	 viewBox="0 0 470 470" style="enable-background:new 0 0 470 470;" xml:space="preserve">
<g>
	<path d="M195,267.5c0,4.143,3.357,7.5,7.5,7.5s7.5-3.357,7.5-7.5c0-24.562-16.708-26.374-26.691-27.456
		C173.354,238.964,170,238.601,170,227.5c0-4.143-3.357-7.5-7.5-7.5s-7.5,3.357-7.5,7.5v80.243c-3.753-1.749-8-2.743-12.5-2.743
		c-15.163,0-27.5,11.215-27.5,25s12.337,25,27.5,25s27.5-11.215,27.5-25v-77.301c4.058,1.429,8.271,1.886,11.691,2.257
		C191.646,256.036,195,256.399,195,267.5z M142.5,340c-6.893,0-12.5-4.486-12.5-10s5.607-10,12.5-10s12.5,4.486,12.5,10
		S149.393,340,142.5,340z"/>
	<path d="M122.5,295h10c4.143,0,7.5-3.357,7.5-7.5s-3.357-7.5-7.5-7.5h-10c-4.143,0-7.5,3.357-7.5,7.5S118.357,295,122.5,295z"/>
	<path d="M347.5,280h-155c-4.143,0-7.5,3.357-7.5,7.5s3.357,7.5,7.5,7.5h155c4.143,0,7.5-3.357,7.5-7.5S351.643,280,347.5,280z"/>
	<path d="M347.5,250H230.97c-4.143,0-7.5,3.357-7.5,7.5s3.357,7.5,7.5,7.5H347.5c4.143,0,7.5-3.357,7.5-7.5S351.643,250,347.5,250z"
		/>
	<path d="M347.5,325c4.143,0,7.5-3.357,7.5-7.5s-3.357-7.5-7.5-7.5h-155c-4.143,0-7.5,3.357-7.5,7.5s3.357,7.5,7.5,7.5H347.5z"/>
	<path d="M122.5,265h10c4.143,0,7.5-3.357,7.5-7.5s-3.357-7.5-7.5-7.5h-10c-4.143,0-7.5,3.357-7.5,7.5S118.357,265,122.5,265z"/>
	<path d="M260,190c0,13.785,12.337,25,27.5,25s27.5-11.215,27.5-25v-77.301c4.058,1.429,8.271,1.886,11.691,2.257
		c9.955,1.08,13.309,1.443,13.309,12.544c0,4.143,3.357,7.5,7.5,7.5s7.5-3.357,7.5-7.5c0-24.562-16.708-26.374-26.691-27.456
		C318.354,98.964,315,98.601,315,87.5c0-4.143-3.357-7.5-7.5-7.5s-7.5,3.357-7.5,7.5v80.243c-3.753-1.749-8-2.743-12.5-2.743
		C272.337,165,260,176.215,260,190z M300,190c0,5.514-5.607,10-12.5,10s-12.5-4.486-12.5-10s5.607-10,12.5-10S300,184.486,300,190z"
		/>
	<path d="M122.5,155h155c4.143,0,7.5-3.357,7.5-7.5s-3.357-7.5-7.5-7.5h-155c-4.143,0-7.5,3.357-7.5,7.5S118.357,155,122.5,155z"/>
	<path d="M347.5,140h-10c-4.143,0-7.5,3.357-7.5,7.5s3.357,7.5,7.5,7.5h10c4.143,0,7.5-3.357,7.5-7.5S351.643,140,347.5,140z"/>
	<path d="M122.5,185h121.008c4.143,0,7.5-3.357,7.5-7.5s-3.357-7.5-7.5-7.5H122.5c-4.143,0-7.5,3.357-7.5,7.5S118.357,185,122.5,185
		z"/>
	<path d="M347.5,170h-10c-4.143,0-7.5,3.357-7.5,7.5s3.357,7.5,7.5,7.5h10c4.143,0,7.5-3.357,7.5-7.5S351.643,170,347.5,170z"/>
	<path d="M122.5,125h155c4.143,0,7.5-3.357,7.5-7.5s-3.357-7.5-7.5-7.5h-155c-4.143,0-7.5,3.357-7.5,7.5S118.357,125,122.5,125z"/>
	<path d="M413.417,372.099c0.109-0.14,0.218-0.281,0.317-0.429c0.03-0.045,0.055-0.093,0.084-0.138
		c0.103-0.161,0.204-0.324,0.295-0.493c0.016-0.031,0.029-0.063,0.045-0.093c0.097-0.187,0.188-0.376,0.27-0.571
		c0.008-0.019,0.014-0.039,0.021-0.058c0.083-0.207,0.16-0.416,0.226-0.631c0.007-0.022,0.011-0.045,0.017-0.067
		c0.062-0.21,0.118-0.423,0.161-0.642c0.012-0.06,0.017-0.122,0.028-0.183c0.031-0.18,0.063-0.36,0.081-0.544
		c0.025-0.248,0.038-0.498,0.038-0.749V7.5c0-4.143-3.357-7.5-7.5-7.5h-345C58.357,0,55,3.357,55,7.5v455c0,4.143,3.357,7.5,7.5,7.5
		h250c0.251,0,0.501-0.013,0.749-0.038c0.189-0.019,0.374-0.051,0.558-0.083c0.056-0.01,0.113-0.015,0.169-0.026
		c0.218-0.043,0.432-0.099,0.643-0.162c0.022-0.006,0.044-0.01,0.066-0.017c0.213-0.065,0.422-0.142,0.626-0.225
		c0.021-0.008,0.042-0.015,0.063-0.023c0.195-0.081,0.384-0.173,0.57-0.27c0.031-0.016,0.063-0.029,0.094-0.045
		c0.171-0.091,0.335-0.193,0.498-0.298c0.044-0.028,0.09-0.052,0.133-0.081c0.149-0.1,0.29-0.209,0.431-0.319
		c0.053-0.041,0.108-0.078,0.16-0.12c0.146-0.12,0.284-0.25,0.421-0.381c0.04-0.038,0.083-0.071,0.122-0.11l95-95
		c0.039-0.039,0.072-0.082,0.11-0.122c0.131-0.137,0.261-0.274,0.381-0.421C413.338,372.208,413.375,372.152,413.417,372.099z
		 M70,15h330v345h-87.5c-4.143,0-7.5,3.357-7.5,7.5V455H70V15z M389.394,375L320,444.394V375H389.394z"/>
</g>
<g>
</g>
<g>
</g>
<g>
</g>
<g>
</g>
<g>
</g>
<g>
</g>
<g>
</g>
<g>
</g>
<g>
</g>
<g>
</g>
<g>
</g>
<g>
</g>
<g>
</g>
<g>
</g>
<g>
</g>
</svg>
