<svg id="Layer_1" enable-background="new 0 0 512 512" height="512" viewBox="0 0 512 512" width="512" xmlns="http://www.w3.org/2000/svg"><g><path d="m453.896 118.19-38.303-38.301v-57.131c0-12.549-10.209-22.758-22.759-22.758h-314.453c-12.392 0-22.474 10.082-22.474 22.474v377.031c0 12.392 10.082 22.474 22.474 22.474h12.712v12.524c0 12.392 10.082 22.474 22.475 22.474h48.753c4.142 0 7.5-3.357 7.5-7.5s-3.358-7.5-7.5-7.5h-48.753c-4.122 0-7.475-3.353-7.475-7.474v-301.544c0-4.143-3.358-7.5-7.5-7.5s-7.5 3.357-7.5 7.5v274.02h-12.712c-4.121 0-7.474-3.353-7.474-7.474v-377.031c0-4.121 3.353-7.474 7.474-7.474h314.454c4.278 0 7.759 3.48 7.759 7.758v42.132l-27.697-27.695c-1.407-1.406-3.314-2.196-5.303-2.196h-254.026c-12.393 0-22.475 10.082-22.475 22.474v40.573c0 4.143 3.358 7.5 7.5 7.5s7.5-3.357 7.5-7.5v-40.574c0-4.121 3.353-7.474 7.475-7.474h246.525v73.482c0 4.142 3.357 7.499 7.499 7.5l73.501.012v303.51c0 4.121-3.353 7.474-7.474 7.474h-48.17c-4.142 0-7.5 3.357-7.5 7.5s3.358 7.5 7.5 7.5h48.17c12.392 0 22.474-10.082 22.474-22.474v-311.008c0-1.989-.79-3.896-2.197-5.304zm-78.803-2.209v-55.377l55.39 55.387z"/><path d="m363.49 175.456h-179.422c-4.142 0-7.5 3.357-7.5 7.5s3.358 7.5 7.5 7.5h179.422c4.142 0 7.5-3.357 7.5-7.5s-3.358-7.5-7.5-7.5z"/><path d="m363.49 219.688h-179.422c-4.142 0-7.5 3.357-7.5 7.5s3.358 7.5 7.5 7.5h179.422c4.142 0 7.5-3.357 7.5-7.5s-3.358-7.5-7.5-7.5z"/><path d="m363.49 264.802h-35.447c-4.142 0-7.5 3.357-7.5 7.5s3.358 7.5 7.5 7.5h35.447c4.142 0 7.5-3.357 7.5-7.5s-3.358-7.5-7.5-7.5z"/><path d="m292.746 279.802c4.142 0 7.5-3.357 7.5-7.5s-3.358-7.5-7.5-7.5h-108.678c-4.142 0-7.5 3.357-7.5 7.5s3.358 7.5 7.5 7.5z"/><path d="m301.273 410.599-19.994-19.993v72.506c0 4.143-3.358 7.5-7.5 7.5s-7.5-3.357-7.5-7.5v-72.506l-19.994 19.993c-2.929 2.928-7.678 2.929-10.606-.001-2.929-2.929-2.929-7.678 0-10.606l32.797-32.796c1.464-1.464 3.384-2.196 5.303-2.196s3.839.732 5.303 2.196l32.797 32.796c2.929 2.929 2.929 7.678 0 10.606-2.928 2.929-7.677 2.928-10.606.001z"/><path d="m273.779 323.61c-51.941 0-94.199 42.256-94.199 94.195 0 51.938 42.258 94.194 94.199 94.194s94.199-42.256 94.199-94.194c0-51.939-42.258-94.195-94.199-94.195zm0 173.39c-43.67 0-79.199-35.526-79.199-79.194s35.529-79.195 79.199-79.195 79.199 35.527 79.199 79.195-35.529 79.194-79.199 79.194z"/></g></svg>